<svg width="58" height="58" viewBox="0 0 58 58" fill="none" xmlns="http://www.w3.org/2000/svg">
<path d="M54.8588 55.8518V20.2417C54.8588 19.7102 54.4279 19.2793 53.8964 19.2793H44.272C43.7405 19.2793 43.3096 19.7102 43.3096 20.2417V55.8518H41.3847V33.7158C41.3847 33.1843 40.9538 32.7534 40.4223 32.7534H30.7979C30.2664 32.7534 29.8355 33.1843 29.8355 33.7158V55.8518H27.9106V24.0915C27.9106 23.56 27.4797 23.129 26.9482 23.129H17.3238C16.7923 23.129 16.3614 23.56 16.3614 24.0915V55.8518H14.4365V37.5656C14.4365 37.0341 14.0056 36.6031 13.4741 36.6031H3.84974C3.31823 36.6031 2.8873 37.0341 2.8873 37.5656V55.8518H0V57.7767H57.7461V55.8518H54.8588ZM12.5117 55.8518H4.81217V38.528H12.5117V55.8518ZM25.9857 55.8518H18.2863V25.0539H25.9857V55.8518ZM39.4598 55.8518H31.7604V34.6783H39.4598V55.8518ZM52.9339 55.8518H45.2344V21.2042H52.9339V55.8518Z" fill="#ED6B1E"/>
<path d="M6.0086 26.1806C6.79587 26.7011 7.71885 26.9786 8.66264 26.9785C11.3203 26.9784 13.4747 24.8238 13.4746 22.1661C13.4746 21.2227 13.1971 20.2999 12.677 19.5129L19.4891 12.6998C20.2698 13.2223 21.1876 13.5022 22.1271 13.5044C22.4104 13.5045 22.6931 13.4797 22.9721 13.4303C23.8878 13.2698 24.7366 12.8456 25.4148 12.2099L31.1249 16.5996C30.1719 19.0805 31.4104 21.8644 33.8913 22.8174C36.3722 23.7705 39.1561 22.5319 40.1091 20.051C40.6681 18.596 40.4877 16.9605 39.6251 15.6622L46.4353 8.85199C48.6582 10.3233 51.6529 9.71397 53.1241 7.49111C54.5954 5.26825 53.9861 2.27351 51.7632 0.802309C49.5404 -0.669013 46.5456 -0.0596717 45.0744 2.16319C44.0054 3.77828 44.0054 5.87603 45.0744 7.49111L38.2643 14.3013C36.3568 13.0405 33.8256 13.2959 32.2086 14.9124C32.1903 14.9307 32.1797 14.9519 32.1624 14.9692L26.5351 10.644C27.616 8.21607 26.524 5.37159 24.096 4.29065C21.668 3.20972 18.8235 4.30172 17.7426 6.7297C17.0741 8.23146 17.2183 9.9707 18.1253 11.3417L11.3161 18.1519C9.09898 16.6862 6.11363 17.2954 4.64796 19.5125C3.18241 21.7296 3.79151 24.715 6.0086 26.1806ZM49.0849 1.95519C50.6795 1.95519 51.9722 3.24786 51.9722 4.84249C51.9722 6.43712 50.6795 7.72979 49.0849 7.72979C47.4903 7.72979 46.1976 6.43712 46.1976 4.84249C46.1976 3.24786 47.4903 1.95519 49.0849 1.95519ZM33.5682 16.2756C34.1098 15.7336 34.8446 15.4292 35.6108 15.4293C37.2055 15.429 38.4982 16.7216 38.4985 18.3162C38.4986 19.0824 38.1941 19.8173 37.6521 20.3589C36.5093 21.4482 34.7124 21.4482 33.5695 20.3589C32.4415 19.2316 32.441 17.4035 33.5682 16.2756ZM19.7718 7.03624L19.772 7.03588C20.2097 6.40717 20.8805 5.97949 21.6353 5.84823C21.8029 5.81948 21.9725 5.80505 22.1425 5.80492C22.7333 5.80553 23.3096 5.98803 23.7931 6.32753C25.0992 7.24232 25.4166 9.04268 24.5018 10.3488C23.587 11.655 21.7866 11.9722 20.4805 11.0575C19.1744 10.1427 18.857 8.34238 19.7718 7.03624ZM6.61999 20.1254C6.62047 20.1249 6.62083 20.1245 6.62131 20.124C7.74929 18.9967 9.57755 18.997 10.7049 20.125C11.8323 21.253 11.8319 23.0812 10.704 24.2086C9.56107 25.298 7.7642 25.298 6.62131 24.2086C5.49334 23.0814 5.49286 21.2532 6.61999 20.1254Z" fill="#ED6B1E"/>
</svg>
