<svg width="62" height="64" viewBox="0 0 62 64" fill="none" xmlns="http://www.w3.org/2000/svg">
<path d="M60.1458 3.11525H47.3949V0.9375C47.3949 0.41975 46.9753 0 46.4574 0H14.1798C13.6619 0 13.2423 0.41975 13.2423 0.9375V3.11525H0.93775C0.4265 3.11525 0 3.54275 0 4.05288L0.000249982 28.6531C0.000249982 29.1709 0.419875 29.5906 0.93775 29.5906H13.2424V36.4354C13.2424 36.9531 13.662 37.3729 14.1799 37.3729H17.041C16.8574 37.727 16.7339 38.1189 16.6859 38.5363L15.4532 49.209C15.4186 49.5107 15.4023 49.817 15.4046 50.1116C15.4046 52.518 16.6285 54.5 18.3988 56.0241C19.4391 56.9198 20.4795 57.8155 21.5199 58.7111V63.0625C21.5199 63.5802 21.9395 64 22.4574 64H25.3419C25.8597 64 26.2794 63.5802 26.2794 63.0625C26.2794 62.5448 25.8597 62.125 25.3419 62.125H23.3949V58.2811C23.3949 58.0081 23.2759 57.7487 23.0691 57.5706C22.0429 56.6871 21.0166 55.8035 19.9904 54.92C18.4862 53.6251 17.3184 52.2081 17.2796 50.0969C17.278 49.8734 17.2904 49.6469 17.316 49.4239L18.5486 38.751C18.635 37.9994 19.2719 37.4325 20.0299 37.4325C20.527 37.4325 20.9424 37.7054 21.1471 37.939C21.4836 38.3232 21.52 38.7546 21.52 38.9222V46.8257C21.52 47.3435 21.9396 47.7632 22.4575 47.7632C22.9754 47.7632 23.395 47.3435 23.395 46.8257V21.4226C23.395 20.601 24.0635 19.9326 24.885 19.9326C25.7041 19.9326 26.3706 20.5971 26.3747 21.4153C26.3747 21.4176 26.3744 21.4199 26.3744 21.4223C26.3744 21.4271 26.375 21.4319 26.3751 21.4368V33.2886C26.3751 34.7206 28.2598 34.717 28.2576 33.3003C28.2574 33.0966 28.2565 32.4975 28.2611 32.342C28.4284 30.4349 31.6254 30.4803 31.6254 32.4398V33.86C31.6254 35.0691 33.5004 35.0691 33.5004 33.86C33.5005 33.0373 34.1698 32.3679 34.9926 32.3679C35.9245 32.3679 36.8684 32.7718 36.8684 33.8601V34.7837C36.8684 35.9806 38.722 36.0008 38.7433 34.8003C38.7466 34.6048 38.7569 34.5611 38.791 34.417C39.167 32.9497 41.3402 32.9428 41.7214 34.4098L42.8781 38.8652C43.7144 42.0889 43.6808 45.4874 42.7805 48.6934L40.1595 58.0277C40.1362 58.1102 40.1246 58.1955 40.1246 58.2811V62.125H29.8302C29.3124 62.125 28.8927 62.5448 28.8927 63.0625C28.8927 63.5802 29.3124 64 29.8302 64H41.0621C41.58 64 41.9996 63.5802 41.9996 63.0625V58.4103L44.5856 49.2001C45.5754 45.6753 45.6126 41.9386 44.693 38.3941L44.4279 37.3727H46.4578C46.9756 37.3727 47.3953 36.953 47.3953 36.4352V8.7925H59.2086V27.7156H50.8652C50.3474 27.7156 49.9277 28.1354 49.9277 28.6531C49.9277 29.1709 50.3474 29.5906 50.8652 29.5906H60.1461C60.664 29.5906 61.0836 29.1709 61.0836 28.6531V4.05288C61.0833 3.53513 60.6636 3.11525 60.1458 3.11525ZM1.87525 4.99038H13.2424V6.9175H1.87525V4.99038ZM15.1179 1.87538H45.5195V6.9175H15.1179V1.87538ZM1.87525 27.7156V8.7925H13.2424V27.7156H1.87525ZM43.9408 35.4979L43.5359 33.9383C42.9439 31.6604 40.1264 30.6735 38.2336 32.077C37.2079 30.44 34.8022 29.99 33.1883 31.018C32.3519 29.2194 29.9895 28.553 28.2499 29.4279V22.3596H36.7781C37.2786 22.3596 37.6858 22.7674 37.6858 23.2685V25.0694C37.6858 25.5697 37.2786 25.9769 36.7781 25.9769H31.6468C31.1289 25.9769 30.7093 26.3966 30.7093 26.9144C30.7093 27.4321 31.1289 27.8519 31.6468 27.8519H36.7781C38.3124 27.8519 39.5608 26.6036 39.5608 25.0694V23.2685C39.5608 21.7335 38.3125 20.4846 36.7781 20.4846H28.1159C27.7086 19.0842 26.4148 18.0575 24.8848 18.0575C23.0293 18.0575 21.5197 19.5671 21.5197 21.4225V35.4977H15.1172V8.7925H45.5199V35.4979H43.9408ZM47.3949 6.9175V4.99038H59.2083V6.9175H47.3949Z" fill="#ED6B1E"/>
<path d="M35.7539 3.50391H24.8828C24.3649 3.50391 23.9453 3.92366 23.9453 4.44141C23.9453 4.95916 24.3649 5.37891 24.8828 5.37891H35.7539C36.2718 5.37891 36.6914 4.95916 36.6914 4.44141C36.6914 3.92366 36.2718 3.50391 35.7539 3.50391Z" fill="#ED6B1E"/>
<path d="M26.4572 10.5918H19.0547C18.5368 10.5918 18.1172 11.0115 18.1172 11.5293V15.811C18.1172 16.3288 18.5368 16.7485 19.0547 16.7485H26.4572C26.9751 16.7485 27.3947 16.3288 27.3947 15.811V11.5293C27.3947 11.0115 26.9751 10.5918 26.4572 10.5918ZM25.5197 14.8735H19.9922V12.4668H25.5197V14.8735Z" fill="#ED6B1E"/>
<path d="M50.2109 15.5898H55.7801C56.2979 15.5898 56.7176 15.1701 56.7176 14.6523C56.7176 14.1346 56.2979 13.7148 55.7801 13.7148H50.2109C49.6931 13.7148 49.2734 14.1346 49.2734 14.6523C49.2734 15.1701 49.6932 15.5898 50.2109 15.5898Z" fill="#ED6B1E"/>
<path d="M55.7801 19.623C56.2979 19.623 56.7176 19.2033 56.7176 18.6855C56.7176 18.1678 56.2979 17.748 55.7801 17.748H50.2109C49.6931 17.748 49.2734 18.1678 49.2734 18.6855C49.2734 19.2033 49.6931 19.623 50.2109 19.623H55.7801Z" fill="#ED6B1E"/>
<path d="M4.72266 15.5898H10.2917C10.8095 15.5898 11.2292 15.1701 11.2292 14.6523C11.2292 14.1346 10.8095 13.7148 10.2917 13.7148H4.72266C4.20478 13.7148 3.78516 14.1346 3.78516 14.6523C3.78516 15.1701 4.20491 15.5898 4.72266 15.5898Z" fill="#ED6B1E"/>
<path d="M10.2917 17.748H4.72266C4.20478 17.748 3.78516 18.1678 3.78516 18.6855C3.78516 19.2033 4.20478 19.623 4.72266 19.623H10.2917C10.8095 19.623 11.2292 19.2033 11.2292 18.6855C11.2292 18.1678 10.8095 17.748 10.2917 17.748Z" fill="#ED6B1E"/>
<path d="M41.0627 12.7324H31.1172C30.5993 12.7324 30.1797 13.1522 30.1797 13.6699C30.1797 14.1877 30.5993 14.6074 31.1172 14.6074H41.0627C41.5806 14.6074 42.0002 14.1877 42.0002 13.6699C42.0002 13.1522 41.5806 12.7324 41.0627 12.7324Z" fill="#ED6B1E"/>
</svg>
