<svg width="65" height="66" viewBox="0 0 65 66" fill="none" xmlns="http://www.w3.org/2000/svg">
<path d="M56.4853 47.8164C57.5285 46.6133 58.1029 45.0724 58.1029 43.4774C58.1029 39.8211 55.1287 36.8466 51.4728 36.8466C49.5478 36.8466 47.7208 37.6817 46.4601 39.1379C45.4171 40.3417 44.8428 41.8829 44.8428 43.4774C44.8428 47.1333 47.817 50.1075 51.4728 50.1075C53.3981 50.1073 55.2252 49.2722 56.4853 47.8164ZM46.7772 43.4774C46.7772 42.3481 47.1838 41.2566 47.9223 40.4045C47.9223 40.4044 47.9224 40.4042 47.9225 40.4042C48.8155 39.3726 50.1096 38.781 51.4728 38.781C54.0621 38.781 56.1686 40.8878 56.1686 43.4775C56.1686 44.607 55.7622 45.698 55.0233 46.5501C54.1303 47.5817 52.8362 48.1733 51.4728 48.1733C48.8837 48.173 46.7772 46.0666 46.7772 43.4774Z" fill="#ED6B1E"/>
<path d="M60.4077 34.6134C58.0952 32.2823 55.03 30.9563 51.7769 30.8797C48.3503 30.799 45.1169 32.0713 42.669 34.4621C40.2206 36.8536 38.8721 40.0554 38.8721 43.4776C38.8721 45.1148 39.184 46.7114 39.7993 48.2229C40.0006 48.7176 40.565 48.9553 41.0597 48.7541C41.5544 48.5526 41.7923 47.9884 41.5909 47.4937C41.0703 46.2149 40.8065 44.8637 40.8065 43.4776C40.8065 40.5808 41.9479 37.8705 44.0206 35.846C46.0927 33.8222 48.8321 32.744 51.7313 32.8136C54.4822 32.8783 57.0759 34.0015 59.0344 35.9758C60.993 37.9501 62.0955 40.5529 62.1392 43.3046C62.1767 45.6782 61.4507 47.9359 60.033 49.8433L54.7736 57.0954C53.8259 58.4023 53.1725 59.8649 52.8317 61.4424L52.438 63.2641C52.3405 63.7151 51.9349 64.0422 51.4736 64.0422C51.0123 64.0422 50.6068 63.7149 50.5094 63.264L50.1156 61.4424C49.7746 59.8648 49.1212 58.4021 48.1734 57.0952L43.6293 50.8295C43.3158 50.3971 42.711 50.3007 42.2785 50.6144C41.8461 50.928 41.7498 51.5326 42.0634 51.9652L46.6075 58.2309C47.3968 59.3192 47.9409 60.5372 48.2248 61.8512L48.6185 63.6727C48.9069 65.0079 50.1076 65.9766 51.4734 65.9766C52.8391 65.9766 54.0398 65.0076 54.3282 63.6727L54.722 61.8511C55.0059 60.5373 55.5499 59.3194 56.3392 58.2309L61.5918 50.988C63.2595 48.7446 64.1173 46.0771 64.073 43.2738C64.0217 40.0198 62.7199 36.9442 60.4077 34.6134Z" fill="#ED6B1E"/>
<path d="M10.2815 15.8424C11.8789 15.8424 13.395 15.1493 14.4405 13.9416C15.306 12.9432 15.7828 11.6646 15.7828 10.3411C15.7828 9.53808 15.6123 8.76222 15.276 8.03494C15.0518 7.55004 14.4769 7.33871 13.9923 7.56293C13.5074 7.78701 13.2962 8.36186 13.5203 8.84662C13.7379 9.31761 13.8485 9.82054 13.8485 10.3411C13.8485 11.1991 13.5396 12.0278 12.9784 12.6749C12.3001 13.4585 11.3172 13.9081 10.2815 13.9081C8.31476 13.9081 6.71471 12.308 6.71471 10.3413C6.71471 9.48345 7.02359 8.65437 7.58477 8.00685C8.26308 7.22325 9.24602 6.77366 10.2817 6.77366C10.4644 6.77366 10.6478 6.78758 10.8269 6.8149C11.3549 6.89608 11.8483 6.53321 11.9291 6.00515C12.0099 5.47721 11.6474 4.98355 11.1194 4.90288C10.8438 4.86075 10.5619 4.83936 10.2815 4.83936C8.6842 4.83936 7.16804 5.53249 6.12234 6.74055C5.25692 7.73946 4.78027 9.01826 4.78027 10.3413C4.7804 13.3745 7.24819 15.8424 10.2815 15.8424Z" fill="#ED6B1E"/>
<path d="M6.23035 22.2653C6.84656 23.1149 7.27128 24.0656 7.49291 25.0913L7.8081 26.55C8.05809 27.707 9.09863 28.5467 10.2825 28.5467C11.4663 28.5467 12.5068 27.7069 12.7568 26.55L13.072 25.0914C13.2936 24.0656 13.7185 23.1149 14.3346 22.2654L18.5389 16.468C19.8996 14.6377 20.5997 12.461 20.5635 10.1735C20.5215 7.51824 19.4594 5.00844 17.5728 3.10674C15.6858 1.20477 13.1848 0.122871 10.53 0.0602451C7.73427 -0.00611747 5.09574 1.03262 3.09829 2.98342C1.10046 4.93474 0 7.54723 0 10.3396C0 12.566 0.700608 14.6853 2.01936 16.4589L6.23035 22.2653ZM4.4499 4.36711C6.02302 2.83059 8.08657 1.99159 10.281 1.99159C10.3484 1.99159 10.4166 1.99236 10.4843 1.99404C12.6367 2.04468 14.6664 2.92363 16.1993 4.46891C17.7322 6.01419 18.5952 8.05081 18.6292 10.2041C18.6586 12.0617 18.0904 13.8286 16.9797 15.3231L12.7687 21.1295C11.9942 22.1975 11.4601 23.3929 11.1814 24.6826L10.8662 26.1411C10.8072 26.4142 10.5617 26.6122 10.2826 26.6122C10.0035 26.6122 9.75787 26.4142 9.69899 26.1412L9.3838 24.6827C9.10507 23.3932 8.57108 22.1978 7.79638 21.1297L3.57868 15.314C2.50322 13.8673 1.93469 12.1471 1.93469 10.3396C1.93431 8.07259 2.82782 5.95144 4.4499 4.36711Z" fill="#ED6B1E"/>
<path d="M54.6355 11.0781C54.2752 11.4724 54.3027 12.0842 54.697 12.4445C54.8826 12.6141 55.1161 12.6976 55.3492 12.6976C55.6113 12.6976 55.8728 12.5916 56.0635 12.3828L56.0802 12.3648C56.1035 12.3396 56.1267 12.3144 56.148 12.2896C56.8811 11.4442 57.2848 10.3614 57.2848 9.2407C57.2848 6.67176 55.195 4.58167 52.6263 4.58167C51.2846 4.58167 50.0075 5.16102 49.1225 6.17127C48.7706 6.57306 48.8109 7.18411 49.2127 7.53602C49.6144 7.88807 50.2255 7.84773 50.5775 7.44582C51.0953 6.85487 51.842 6.51584 52.6264 6.51584C54.1285 6.51584 55.3506 7.7382 55.3506 9.24058C55.3506 9.89583 55.1148 10.5285 54.6856 11.0237L54.6355 11.0781Z" fill="#ED6B1E"/>
<path d="M45.3389 5.2056C45.7727 5.51731 46.3771 5.41809 46.6887 4.98435C48.1005 3.01886 50.3861 1.87716 52.8015 1.93631C54.6851 1.98064 56.4612 2.74993 57.8028 4.10218C59.1444 5.45456 59.8996 7.23694 59.9294 9.12099C59.955 10.7466 59.4579 12.293 58.485 13.6021L57.4852 14.9807C57.1715 15.4131 57.2679 16.0178 57.7003 16.3314C57.8718 16.4559 58.0703 16.5157 58.2671 16.5157C58.5665 16.5157 58.8617 16.3771 59.0508 16.1163L60.044 14.7467C61.2667 13.1018 61.8959 11.1459 61.8633 9.09032C61.8257 6.70411 60.8711 4.44868 59.176 2.73988C57.4804 1.03094 55.2329 0.0587006 52.847 0.00251787C49.7916 -0.0686125 46.9025 1.371 45.1177 3.85593C45.0324 3.97487 44.7786 4.58076 45.1852 5.06772C45.2305 5.11798 45.2816 5.16449 45.3389 5.2056Z" fill="#ED6B1E"/>
<path d="M43.7575 57.9175C43.7589 57.6495 43.6507 57.3824 43.435 57.1901C43.0363 56.8346 42.4249 56.8696 42.0695 57.2683C41.4552 57.9572 40.8149 58.5886 40.1642 59.1486C38.7993 59.6208 37.4035 59.9803 35.982 60.2287C37.0606 57.9079 37.9858 54.7166 38.6926 50.8527C38.7888 50.3273 38.4407 49.8235 37.9153 49.7273C37.3906 49.6312 36.8861 49.9791 36.79 50.5046C35.9934 54.8596 34.8858 58.3909 33.6504 60.5336C32.8431 60.604 32.029 60.641 31.2082 60.641C30.3844 60.641 29.5697 60.6024 28.7642 60.5309C27.3394 58.0658 26.1627 53.9427 25.3617 48.8988C27.276 49.0543 29.2312 49.1346 31.2082 49.1346C33.0391 49.1346 34.8876 49.0653 36.7021 48.9285C37.2347 48.8883 37.634 48.4241 37.5939 47.8915C37.5537 47.3588 37.0884 46.9605 36.5569 46.9996C34.7906 47.1328 32.9911 47.2003 31.2082 47.2003C29.1286 47.2003 27.0767 47.1088 25.075 46.9342C24.553 43.027 24.2467 38.6649 24.2083 34.1484H39.8925C40.4266 34.1484 40.8597 33.7154 40.8597 33.1812C40.8597 32.7338 40.5555 32.3584 40.143 32.248C40.108 27.7819 39.8223 23.5 39.3266 19.6312C42.5546 20.0097 45.6232 20.6108 48.4265 21.4093C49.0216 23.5542 49.4563 25.8052 49.7103 28.1004C49.7651 28.5952 50.184 28.9611 50.6704 28.9611C50.7059 28.9611 50.7418 28.9592 50.778 28.9552C51.3089 28.8965 51.6917 28.4184 51.6329 27.8875C51.4144 25.9126 51.0669 23.9672 50.6032 22.0871C53.2314 22.9799 55.5703 24.0593 57.5184 25.3011C58.0043 26.9258 58.3416 28.6021 58.519 30.3115C58.5706 30.8089 58.9905 31.1788 59.4798 31.1788C59.5132 31.1788 59.5469 31.1771 59.5809 31.1735C60.1122 31.1184 60.4982 30.643 60.4431 30.1117C59.6969 22.9232 56.3251 16.2787 50.949 11.4025C45.5346 6.49168 38.5239 3.78705 31.2083 3.78705C28.2238 3.78705 25.2787 4.23316 22.455 5.11288C21.945 5.27177 21.6603 5.81401 21.8192 6.32403C21.9781 6.83393 22.52 7.11819 23.0304 6.95982C24.1466 6.61203 25.2835 6.33769 26.4348 6.1359C25.1524 8.89916 24.0946 12.8788 23.3657 17.653C22.264 17.7737 21.1736 17.9171 20.1008 18.089C19.5733 18.1736 19.2143 18.6697 19.2989 19.1971C19.3834 19.7246 19.8795 20.083 20.4069 19.999C21.29 19.8574 22.1844 19.734 23.0881 19.6282C22.9335 20.8354 22.7988 22.0856 22.6861 23.3733C22.6394 23.9053 23.0329 24.3746 23.565 24.4212C23.5937 24.4237 23.6222 24.4249 23.6506 24.4249C24.1466 24.4249 24.5688 24.0455 24.6129 23.5421C24.7371 22.1252 24.8901 20.7511 25.0676 19.429C27.0811 19.2537 29.1328 19.162 31.2083 19.162C33.2878 19.162 35.3398 19.2535 37.3415 19.4281C37.8635 23.3353 38.1698 27.6974 38.2082 32.2139H24.2097C24.2225 30.6734 24.2639 29.1343 24.337 27.626C24.3628 27.0924 23.9513 26.639 23.4179 26.6132C22.8821 26.5888 22.4308 26.999 22.405 27.5323C22.3305 29.0717 22.2883 30.6421 22.2755 32.2138H12.4385C12.4448 31.933 12.4535 31.6452 12.4652 31.3447C12.4861 30.8109 12.0704 30.3613 11.5366 30.3403C11.0053 30.3174 10.5532 30.735 10.5323 31.2689C10.5195 31.5955 10.51 31.9088 10.5034 32.2137H3.76629C3.85533 29.6544 4.29641 27.1337 5.0831 24.7071C5.24778 24.199 4.96932 23.6536 4.46122 23.4889C3.953 23.3242 3.40767 23.6027 3.24299 24.1107C2.2951 27.0355 1.81445 30.087 1.81445 33.1809C1.81445 41.0323 4.8719 48.4137 10.4237 53.9657C15.9756 59.5174 23.3569 62.5749 31.2084 62.5749C35.6435 62.5749 39.9071 61.6107 43.8805 59.7094C44.3623 59.4789 44.566 58.9014 44.3355 58.4197C44.2156 58.1701 44.0022 57.9959 43.7575 57.9175ZM39.0497 17.6555C38.3279 12.9249 37.278 8.92841 35.9836 6.13976C37.4104 6.39065 38.8107 6.75365 40.1729 7.2236C42.5853 9.30236 44.7196 12.2388 46.3511 15.7319C46.8706 16.8444 47.339 18.0153 47.754 19.2305C45.0336 18.5247 42.1052 17.9928 39.0497 17.6555ZM56.5084 22.4924C54.575 21.4833 52.3816 20.6009 49.9893 19.8624C49.4599 18.1291 48.8297 16.4678 48.1037 14.9134C47.1324 12.8337 45.9874 10.9354 44.713 9.27014C46.4712 10.2644 48.1282 11.4561 49.6492 12.8358C52.6412 15.5495 54.9683 18.8489 56.5084 22.4924ZM31.2082 17.2281C29.2338 17.2281 27.2789 17.3077 25.3565 17.4625C26.1694 12.3825 27.3664 8.25538 28.7664 5.82998C29.5759 5.75873 30.3903 5.72174 31.2082 5.72174C32.0275 5.72174 32.8425 5.75898 33.6516 5.83089C35.0767 8.29609 36.2537 12.4199 37.0548 17.4647C35.1403 17.3093 33.1854 17.2281 31.2082 17.2281ZM26.4334 60.2247C24.9942 59.9714 23.5936 59.6048 22.2403 59.136C18.9622 56.3118 16.3591 52.11 14.6598 47.1334C17.3807 47.8392 20.3108 48.3702 23.3667 48.7074C24.0886 53.439 25.1389 57.4358 26.4334 60.2247ZM23.0898 46.7315C19.8598 46.3529 16.7897 45.7513 13.9851 44.9521C13.0532 41.5855 12.516 37.9296 12.4375 34.1486H22.2737C22.31 38.6024 22.5955 42.8725 23.0898 46.7315ZM3.76745 34.1486H10.5032C10.5737 37.6608 11.0266 41.0769 11.816 44.2765C9.1892 43.3845 6.85144 42.3058 4.9036 41.0652C4.24242 38.8622 3.85082 36.5441 3.76745 34.1486ZM5.91669 43.8755C7.84855 44.8829 10.0413 45.763 12.4309 46.5003C13.6631 50.5296 15.4478 54.1415 17.6822 57.0712C12.4509 54.0979 8.28564 49.457 5.91669 43.8755Z" fill="#ED6B1E"/>
</svg>
