<svg width="43" height="58" viewBox="0 0 43 58" fill="none" xmlns="http://www.w3.org/2000/svg">
<g id="Group 398">
<g id="Group">
<path id="Vector" d="M21.5 0.302734C12.5417 0.302734 5.375 7.4694 5.375 16.4277V23.5944C2.32917 23.5944 0 25.9236 0 28.9694V52.2611C0 55.3069 2.32917 57.6361 5.375 57.6361H37.625C40.6708 57.6361 43 55.3069 43 52.2611V28.9694C43 25.9236 40.6708 23.5944 37.625 23.5944V16.4277C37.625 7.4694 30.4583 0.302734 21.5 0.302734ZM39.4167 28.9694V52.2611C39.4167 53.3361 38.7 54.0527 37.625 54.0527H5.375C4.3 54.0527 3.58333 53.3361 3.58333 52.2611V28.9694C3.58333 27.8944 4.3 27.1777 5.375 27.1777H7.16667H35.8333H37.625C38.7 27.1777 39.4167 27.8944 39.4167 28.9694ZM8.95833 23.5944V16.4277C8.95833 9.44023 14.5125 3.88607 21.5 3.88607C28.4875 3.88607 34.0417 9.44023 34.0417 16.4277V23.5944H8.95833Z" fill="#0069EC"/>
<path id="Vector_2" d="M21.5007 32.5525C18.4549 32.5525 16.1257 34.8817 16.1257 37.9275C16.1257 40.2567 17.5591 42.2275 19.7091 42.9442V46.8858C19.7091 47.9608 20.4257 48.6775 21.5007 48.6775C22.5757 48.6775 23.2924 47.9608 23.2924 46.8858V42.9442C25.4424 42.2275 26.8757 40.2567 26.8757 37.9275C26.8757 34.8817 24.5466 32.5525 21.5007 32.5525ZM21.5007 39.7192C20.4257 39.7192 19.7091 39.0025 19.7091 37.9275C19.7091 36.8525 20.4257 36.1358 21.5007 36.1358C22.5757 36.1358 23.2924 36.8525 23.2924 37.9275C23.2924 39.0025 22.5757 39.7192 21.5007 39.7192Z" fill="#0069EC"/>
</g>
</g>
</svg>
