<svg width="31" height="31" viewBox="0 0 31 31" fill="none" xmlns="http://www.w3.org/2000/svg">
<g id="Group 420">
<g id="Group">
<path id="Vector" fill-rule="evenodd" clip-rule="evenodd" d="M15.0328 0C6.74129 0 0 6.74129 0 15.0328C0 23.3244 6.74129 30.0657 15.0328 30.0657C23.3244 30.0657 30.0657 23.3244 30.0657 15.0328C30.0657 6.74129 23.3244 0 15.0328 0Z" fill="#4BAE4F"/>
<path id="Vector_2" fill-rule="evenodd" clip-rule="evenodd" d="M22.3026 9.96518C22.6667 10.3293 22.6667 10.9282 22.3026 11.2923L13.4943 20.1006C13.3123 20.2826 13.0715 20.3766 12.8308 20.3766C12.59 20.3766 12.3492 20.2826 12.1672 20.1006L7.76305 15.6964C7.39897 15.3324 7.39897 14.7334 7.76305 14.3693C8.12712 14.0053 8.72609 14.0053 9.09017 14.3693L12.8308 18.1099L20.9755 9.96518C21.3396 9.59523 21.9385 9.59523 22.3026 9.96518Z" fill="white" stroke="white" stroke-width="1.66229"/>
</g>
</g>
</svg>
