<svg width="31" height="31" viewBox="0 0 31 31" fill="none" xmlns="http://www.w3.org/2000/svg">
<g id="Layer 21">
<path id="Vector" d="M15.035 30.07C23.3386 30.07 30.07 23.3386 30.07 15.035C30.07 6.7314 23.3386 0 15.035 0C6.7314 0 0 6.7314 0 15.035C0 23.3386 6.7314 30.07 15.035 30.07Z" fill="#EE685C"/>
<path id="Vector_2" d="M20.3211 18.4311L16.925 15.035L20.3211 11.6388C20.4452 11.5147 20.5437 11.3674 20.6109 11.2053C20.678 11.0431 20.7126 10.8693 20.7126 10.6938C20.7126 10.5183 20.678 10.3445 20.6109 10.1824C20.5437 10.0203 20.4452 9.87293 20.3211 9.74883C20.197 9.62473 20.0497 9.52628 19.8876 9.45912C19.7254 9.39196 19.5516 9.35739 19.3761 9.35739C19.2006 9.35739 19.0268 9.39196 18.8647 9.45912C18.7026 9.52628 18.5552 9.62473 18.4311 9.74883L15.035 13.145L11.6389 9.74883C11.5148 9.62473 11.3674 9.52628 11.2053 9.45912C11.0432 9.39196 10.8694 9.35739 10.6939 9.35739C10.5184 9.35739 10.3446 9.39196 10.1824 9.45912C10.0203 9.52628 9.87296 9.62473 9.74886 9.74883C9.62476 9.87293 9.52632 10.0203 9.45915 10.1824C9.39199 10.3445 9.35742 10.5183 9.35742 10.6938C9.35742 10.8693 9.39199 11.0431 9.45915 11.2053C9.52632 11.3674 9.62476 11.5147 9.74886 11.6388L13.145 15.035L9.74886 18.4311C9.62476 18.5552 9.52632 18.7025 9.45915 18.8647C9.39199 19.0268 9.35742 19.2006 9.35742 19.3761C9.35742 19.5516 9.39199 19.7254 9.45915 19.8875C9.52632 20.0497 9.62476 20.197 9.74886 20.3211C9.87296 20.4452 10.0203 20.5437 10.1824 20.6108C10.3446 20.678 10.5184 20.7126 10.6939 20.7126C10.8694 20.7126 11.0432 20.678 11.2053 20.6108C11.3674 20.5437 11.5148 20.4452 11.6389 20.3211L15.035 16.925L18.4311 20.3211C18.5552 20.4452 18.7026 20.5437 18.8647 20.6108C19.0268 20.678 19.2006 20.7126 19.3761 20.7126C19.5516 20.7126 19.7254 20.678 19.8876 20.6108C20.0497 20.5437 20.197 20.4452 20.3211 20.3211C20.4452 20.197 20.5437 20.0497 20.6109 19.8875C20.678 19.7254 20.7126 19.5516 20.7126 19.3761C20.7126 19.2006 20.678 19.0268 20.6109 18.8647C20.5437 18.7025 20.4452 18.5552 20.3211 18.4311Z" fill="white"/>
</g>
</svg>
