<svg width="65" height="66" viewBox="0 0 65 66" fill="none" xmlns="http://www.w3.org/2000/svg">
<g id="Group 396">
<g id="Group">
<path id="Vector" d="M56.4856 47.8164C57.5287 46.6133 58.1032 45.0724 58.1032 43.4774C58.1032 39.8211 55.129 36.8466 51.4731 36.8466C49.5481 36.8466 47.7211 37.6817 46.4603 39.1379C45.4173 40.3417 44.843 41.8829 44.843 43.4774C44.843 47.1333 47.8172 50.1075 51.4731 50.1075C53.3984 50.1073 55.2255 49.2722 56.4856 47.8164ZM46.7775 43.4774C46.7775 42.3481 47.184 41.2566 47.9225 40.4045C47.9225 40.4044 47.9226 40.4042 47.9228 40.4042C48.8158 39.3726 50.1099 38.781 51.4731 38.781C54.0624 38.781 56.1689 40.8878 56.1689 43.4775C56.1689 44.607 55.7624 45.698 55.0236 46.5501C54.1306 47.5817 52.8364 48.1733 51.4731 48.1733C48.8839 48.173 46.7775 46.0666 46.7775 43.4774Z" fill="#0069EC"/>
<path id="Vector_2" d="M60.4082 34.6134C58.0957 32.2823 55.0305 30.9563 51.7774 30.8797C48.3508 30.799 45.1173 32.0713 42.6695 34.4621C40.2211 36.8536 38.8726 40.0554 38.8726 43.4776C38.8726 45.1148 39.1845 46.7114 39.7998 48.2229C40.0011 48.7176 40.5655 48.9553 41.0602 48.7541C41.5549 48.5526 41.7928 47.9884 41.5914 47.4937C41.0708 46.2149 40.807 44.8637 40.807 43.4776C40.807 40.5808 41.9484 37.8705 44.0211 35.846C46.0932 33.8222 48.8326 32.744 51.7318 32.8136C54.4827 32.8783 57.0764 34.0015 59.0349 35.9758C60.9935 37.9501 62.096 40.5529 62.1397 43.3046C62.1772 45.6782 61.4512 47.9359 60.0335 49.8433L54.7741 57.0954C53.8264 58.4023 53.173 59.8649 52.8322 61.4424L52.4385 63.2641C52.3409 63.7151 51.9354 64.0422 51.4741 64.0422C51.0128 64.0422 50.6073 63.7149 50.5098 63.264L50.1161 61.4424C49.7751 59.8648 49.1216 58.4021 48.1739 57.0952L43.6298 50.8295C43.3163 50.3971 42.7115 50.3007 42.279 50.6144C41.8466 50.928 41.7502 51.5326 42.0639 51.9652L46.608 58.2309C47.3972 59.3192 47.9414 60.5372 48.2253 61.8512L48.619 63.6727C48.9074 65.0079 50.1081 65.9766 51.4738 65.9766C52.8396 65.9766 54.0403 65.0076 54.3287 63.6727L54.7225 61.8511C55.0064 60.5373 55.5504 59.3194 56.3397 58.2309L61.5923 50.988C63.26 48.7446 64.1178 46.0771 64.0735 43.2738C64.0222 40.0198 62.7204 36.9442 60.4082 34.6134Z" fill="#0069EC"/>
<path id="Vector_3" d="M10.2815 15.8424C11.8789 15.8424 13.395 15.1493 14.4405 13.9416C15.306 12.9432 15.7828 11.6646 15.7828 10.3411C15.7828 9.53808 15.6123 8.76222 15.276 8.03494C15.0518 7.55004 14.4769 7.33871 13.9923 7.56293C13.5074 7.78701 13.2962 8.36186 13.5203 8.84662C13.7379 9.31761 13.8485 9.82054 13.8485 10.3411C13.8485 11.1991 13.5396 12.0278 12.9784 12.6749C12.3001 13.4585 11.3172 13.9081 10.2815 13.9081C8.31476 13.9081 6.71471 12.308 6.71471 10.3413C6.71471 9.48345 7.02359 8.65437 7.58477 8.00685C8.26308 7.22325 9.24602 6.77366 10.2817 6.77366C10.4644 6.77366 10.6478 6.78758 10.8269 6.8149C11.3549 6.89608 11.8483 6.53321 11.9291 6.00515C12.0099 5.47721 11.6474 4.98355 11.1194 4.90288C10.8438 4.86075 10.5619 4.83936 10.2815 4.83936C8.6842 4.83936 7.16804 5.53249 6.12234 6.74055C5.25692 7.73946 4.78027 9.01826 4.78027 10.3413C4.7804 13.3745 7.24819 15.8424 10.2815 15.8424Z" fill="#0069EC"/>
<path id="Vector_4" d="M6.23035 22.2653C6.84656 23.1149 7.27128 24.0656 7.49291 25.0913L7.8081 26.55C8.05809 27.707 9.09863 28.5467 10.2825 28.5467C11.4663 28.5467 12.5068 27.7069 12.7568 26.55L13.072 25.0914C13.2936 24.0656 13.7185 23.1149 14.3346 22.2654L18.5389 16.468C19.8996 14.6377 20.5997 12.461 20.5635 10.1735C20.5215 7.51824 19.4594 5.00844 17.5728 3.10674C15.6858 1.20477 13.1848 0.122871 10.53 0.0602451C7.73427 -0.00611747 5.09574 1.03262 3.09829 2.98342C1.10046 4.93474 0 7.54723 0 10.3396C0 12.566 0.700608 14.6853 2.01936 16.4589L6.23035 22.2653ZM4.4499 4.36711C6.02302 2.83059 8.08657 1.99159 10.281 1.99159C10.3484 1.99159 10.4166 1.99236 10.4843 1.99404C12.6367 2.04468 14.6664 2.92363 16.1993 4.46891C17.7322 6.01419 18.5952 8.05081 18.6292 10.2041C18.6586 12.0617 18.0904 13.8286 16.9797 15.3231L12.7687 21.1295C11.9942 22.1975 11.4601 23.3929 11.1814 24.6826L10.8662 26.1411C10.8072 26.4142 10.5617 26.6122 10.2826 26.6122C10.0035 26.6122 9.75787 26.4142 9.69899 26.1412L9.3838 24.6827C9.10507 23.3932 8.57108 22.1978 7.79638 21.1297L3.57868 15.314C2.50322 13.8673 1.93469 12.1471 1.93469 10.3396C1.93431 8.07259 2.82782 5.95144 4.4499 4.36711Z" fill="#0069EC"/>
<path id="Vector_5" d="M54.635 11.0781C54.2747 11.4724 54.3023 12.0842 54.6966 12.4445C54.8821 12.6141 55.1156 12.6976 55.3487 12.6976C55.6108 12.6976 55.8723 12.5916 56.063 12.3828L56.0797 12.3648C56.1031 12.3396 56.1263 12.3144 56.1475 12.2896C56.8806 11.4442 57.2843 10.3614 57.2843 9.2407C57.2843 6.67176 55.1945 4.58167 52.6258 4.58167C51.2841 4.58167 50.007 5.16102 49.122 6.17127C48.7701 6.57306 48.8104 7.18411 49.2122 7.53602C49.614 7.88807 50.225 7.84773 50.5771 7.44582C51.0948 6.85487 51.8416 6.51584 52.6259 6.51584C54.128 6.51584 55.3501 7.7382 55.3501 9.24058C55.3501 9.89583 55.1143 10.5285 54.6851 11.0237L54.635 11.0781Z" fill="#0069EC"/>
<path id="Vector_6" d="M45.3392 5.2056C45.7729 5.51731 46.3774 5.41809 46.689 4.98435C48.1007 3.01886 50.3863 1.87716 52.8018 1.93631C54.6853 1.98064 56.4614 2.74993 57.8031 4.10218C59.1446 5.45456 59.8999 7.23694 59.9296 9.12099C59.9553 10.7466 59.4581 12.293 58.4853 13.6021L57.4854 14.9807C57.1718 15.4131 57.2682 16.0178 57.7005 16.3314C57.872 16.4559 58.0706 16.5157 58.2674 16.5157C58.5667 16.5157 58.8619 16.3771 59.0511 16.1163L60.0442 14.7467C61.2669 13.1018 61.8962 11.1459 61.8636 9.09032C61.8259 6.70411 60.8713 4.44868 59.1762 2.73988C57.4807 1.03094 55.2331 0.0587006 52.8473 0.00251787C49.7919 -0.0686125 46.9027 1.371 45.1179 3.85593C45.0326 3.97487 44.7789 4.58076 45.1854 5.06772C45.2308 5.11798 45.2818 5.16449 45.3392 5.2056Z" fill="#0069EC"/>
<path id="Vector_7" d="M43.7578 57.9175C43.7592 57.6495 43.651 57.3824 43.4352 57.1901C43.0365 56.8346 42.4251 56.8696 42.0697 57.2683C41.4554 57.9572 40.8151 58.5886 40.1644 59.1486C38.7995 59.6208 37.4037 59.9803 35.9823 60.2287C37.0608 57.9079 37.986 54.7166 38.6928 50.8527C38.7891 50.3273 38.4409 49.8235 37.9156 49.7273C37.3908 49.6312 36.8863 49.9791 36.7902 50.5046C35.9936 54.8596 34.8861 58.3909 33.6507 60.5336C32.8434 60.604 32.0293 60.641 31.2084 60.641C30.3846 60.641 29.57 60.6024 28.7645 60.5309C27.3397 58.0658 26.1629 53.9427 25.3619 48.8988C27.2763 49.0543 29.2315 49.1346 31.2084 49.1346C33.0394 49.1346 34.8879 49.0653 36.7023 48.9285C37.2349 48.8883 37.6342 48.4241 37.5942 47.8915C37.554 47.3588 37.0887 46.9605 36.5571 46.9996C34.7908 47.1328 32.9913 47.2003 31.2084 47.2003C29.1289 47.2003 27.0769 47.1088 25.0752 46.9342C24.5532 43.027 24.2469 38.6649 24.2085 34.1484H39.8928C40.4269 34.1484 40.86 33.7154 40.86 33.1812C40.86 32.7338 40.5557 32.3584 40.1433 32.248C40.1082 27.7819 39.8225 23.5 39.3268 19.6312C42.5549 20.0097 45.6234 20.6108 48.4267 21.4093C49.0218 23.5542 49.4566 25.8052 49.7106 28.1004C49.7653 28.5952 50.1842 28.9611 50.6707 28.9611C50.7061 28.9611 50.7421 28.9592 50.7783 28.9552C51.3092 28.8965 51.6919 28.4184 51.6331 27.8875C51.4146 25.9126 51.0672 23.9672 50.6034 22.0871C53.2316 22.9799 55.5706 24.0593 57.5187 25.3011C58.0046 26.9258 58.3418 28.6021 58.5193 30.3115C58.5708 30.8089 58.9908 31.1788 59.48 31.1788C59.5134 31.1788 59.5472 31.1771 59.5812 31.1735C60.1125 31.1184 60.4984 30.643 60.4434 30.1117C59.6972 22.9232 56.3253 16.2787 50.9493 11.4025C45.5349 6.49168 38.5242 3.78705 31.2085 3.78705C28.224 3.78705 25.279 4.23316 22.4553 5.11288C21.9452 5.27177 21.6606 5.81401 21.8195 6.32403C21.9784 6.83393 22.5202 7.11819 23.0306 6.95982C24.1468 6.61203 25.2837 6.33769 26.4351 6.1359C25.1527 8.89916 24.0949 12.8788 23.3659 17.653C22.2643 17.7737 21.1739 17.9171 20.101 18.089C19.5736 18.1736 19.2146 18.6697 19.2991 19.1971C19.3836 19.7246 19.8797 20.083 20.4072 19.999C21.2902 19.8574 22.1847 19.734 23.0883 19.6282C22.9337 20.8354 22.7991 22.0856 22.6863 23.3733C22.6397 23.9053 23.0332 24.3746 23.5653 24.4212C23.594 24.4237 23.6225 24.4249 23.6508 24.4249C24.1468 24.4249 24.5691 24.0455 24.6131 23.5421C24.7374 22.1252 24.8903 20.7511 25.0679 19.429C27.0813 19.2537 29.133 19.162 31.2085 19.162C33.2881 19.162 35.34 19.2535 37.3417 19.4281C37.8637 23.3353 38.17 27.6974 38.2084 32.2139H24.2099C24.2227 30.6734 24.2642 29.1343 24.3372 27.626C24.363 27.0924 23.9516 26.639 23.4181 26.6132C22.8823 26.5888 22.431 26.999 22.4053 27.5323C22.3308 29.0717 22.2885 30.6421 22.2758 32.2138H12.4388C12.4451 31.933 12.4537 31.6452 12.4654 31.3447C12.4863 30.8109 12.0706 30.3613 11.5369 30.3403C11.0056 30.3174 10.5534 30.735 10.5325 31.2689C10.5198 31.5955 10.5103 31.9088 10.5037 32.2137H3.76653C3.85557 29.6544 4.29666 27.1337 5.08334 24.7071C5.24803 24.199 4.96956 23.6536 4.46147 23.4889C3.95325 23.3242 3.40791 23.6027 3.24323 24.1107C2.29534 27.0355 1.8147 30.087 1.8147 33.1809C1.8147 41.0323 4.87214 48.4137 10.4239 53.9657C15.9758 59.5174 23.3571 62.5749 31.2087 62.5749C35.6438 62.5749 39.9073 61.6107 43.8807 59.7094C44.3625 59.4789 44.5662 58.9014 44.3357 58.4197C44.2159 58.1701 44.0025 57.9959 43.7578 57.9175ZM39.0499 17.6555C38.3282 12.9249 37.2782 8.92841 35.9838 6.13976C37.4107 6.39065 38.811 6.75365 40.1732 7.2236C42.5855 9.30236 44.7198 12.2388 46.3513 15.7319C46.8709 16.8444 47.3393 18.0153 47.7542 19.2305C45.0339 18.5247 42.1054 17.9928 39.0499 17.6555ZM56.5087 22.4924C54.5753 21.4833 52.3818 20.6009 49.9895 19.8624C49.4602 18.1291 48.8299 16.4678 48.1039 14.9134C47.1326 12.8337 45.9877 10.9354 44.7133 9.27014C46.4714 10.2644 48.1284 11.4561 49.6495 12.8358C52.6415 15.5495 54.9685 18.8489 56.5087 22.4924ZM31.2084 17.2281C29.234 17.2281 27.2791 17.3077 25.3568 17.4625C26.1696 12.3825 27.3666 8.25538 28.7667 5.82998C29.5762 5.75873 30.3905 5.72174 31.2084 5.72174C32.0277 5.72174 32.8427 5.75898 33.6518 5.83089C35.0769 8.29609 36.2539 12.4199 37.055 17.4647C35.1406 17.3093 33.1856 17.2281 31.2084 17.2281ZM26.4337 60.2247C24.9944 59.9714 23.5939 59.6048 22.2406 59.136C18.9624 56.3118 16.3593 52.11 14.66 47.1334C17.3809 47.8392 20.311 48.3702 23.3669 48.7074C24.0888 53.439 25.1391 57.4358 26.4337 60.2247ZM23.09 46.7315C19.86 46.3529 16.79 45.7513 13.9853 44.9521C13.0534 41.5855 12.5162 37.9296 12.4377 34.1486H22.274C22.3103 38.6024 22.5957 42.8725 23.09 46.7315ZM3.76769 34.1486H10.5034C10.5739 37.6608 11.0269 41.0769 11.8162 44.2765C9.18945 43.3845 6.85168 42.3058 4.90384 41.0652C4.24267 38.8622 3.85106 36.5441 3.76769 34.1486ZM5.91693 43.8755C7.84879 44.8829 10.0416 45.763 12.4312 46.5003C13.6633 50.5296 15.448 54.1415 17.6824 57.0712C12.4511 54.0979 8.28589 49.457 5.91693 43.8755Z" fill="#0069EC"/>
</g>
</g>
</svg>
